/* XPM */
static char * menu_active_xpm[] = {
"34 24 3 1",
" 	c None",
".	c #141414",
"+	c #000000",
"..................................",
"++++++++++++++++++++++++++++++++++",
"++++++++++++++++++++++++++++++++++",
"++++++++++++++++++++++++++++++++++",
"++++++++++++++++++++++++++++++++++",
"++++++++++++++++++++++++++++++++++",
"++++++++++++++++++++++++++++++++++",
"++++++++++++++++++++++++++++++++++",
"++++++++++++++++++++++++++++++++++",
"++++++++++++++++++++++++++++++++++",
"++++++++++++++++++++++++++++++++++",
"++++++++++++++++++++++++++++++++++",
"++++++++++++++++++++++++++++++++++",
"++++++++++++++++++++++++++++++++++",
"++++++++++++++++++++++++++++++++++",
"++++++++++++++++++++++++++++++++++",
"++++++++++++++++++++++++++++++++++",
"++++++++++++++++++++++++++++++++++",
"++++++++++++++++++++++++++++++++++",
"++++++++++++++++++++++++++++++++++",
"++++++++++++++++++++++++++++++++++",
"++++++++++++++++++++++++++++++++++",
"++++++++++++++++++++++++++++++++++",
"++++++++++++++++++++++++++++++++++"};
